<svg width="25" height="25" viewBox="0 0 25 25" fill="none" xmlns="http://www.w3.org/2000/svg">
<path d="M22.3055 10.5144H21.5V10.4729H12.5V14.4729H18.1515C17.327 16.8014 15.1115 18.4729 12.5 18.4729C9.1865 18.4729 6.5 15.7864 6.5 12.4729C6.5 9.1594 9.1865 6.4729 12.5 6.4729C14.0295 6.4729 15.421 7.0499 16.4805 7.9924L19.309 5.1639C17.523 3.4994 15.134 2.4729 12.5 2.4729C6.9775 2.4729 2.5 6.9504 2.5 12.4729C2.5 17.9954 6.9775 22.4729 12.5 22.4729C18.0225 22.4729 22.5 17.9954 22.5 12.4729C22.5 11.8024 22.431 11.1479 22.3055 10.5144Z" fill="#FFC107"/>
<path d="M3.65295 7.8184L6.93845 10.2279C7.82745 8.0269 9.98045 6.4729 12.5 6.4729C14.0295 6.4729 15.421 7.0499 16.4805 7.9924L19.309 5.1639C17.523 3.4994 15.134 2.4729 12.5 2.4729C8.65895 2.4729 5.32795 4.6414 3.65295 7.8184Z" fill="#FF3D00"/>
<path d="M12.5 22.4729C15.083 22.4729 17.43 21.4844 19.2045 19.8769L16.1095 17.2579C15.1055 18.0184 13.8575 18.4729 12.5 18.4729C9.89903 18.4729 7.69053 16.8144 6.85853 14.4999L3.59753 17.0124C5.25253 20.2509 8.61353 22.4729 12.5 22.4729Z" fill="#4CAF50"/>
<path d="M22.3055 10.5144H21.5V10.4729H12.5V14.4729H18.1515C17.7555 15.5914 17.036 16.5559 16.108 17.2584L16.1095 17.2574L19.2045 19.8764C18.9855 20.0754 22.5 17.4729 22.5 12.4729C22.5 11.8024 22.431 11.1479 22.3055 10.5144Z" fill="#6366F1"/>
</svg>
