<svg width="36" height="44" viewBox="0 0 36 44" fill="none" xmlns="http://www.w3.org/2000/svg">
<path d="M35.72 31.9037C35.0533 34.0405 34.002 36.1774 32.566 38.3143C30.3607 41.6649 28.164 43.3402 25.9759 43.3402C25.1382 43.3402 23.9415 43.0667 22.3859 42.5197C20.9157 41.9726 19.6251 41.6991 18.5139 41.6991C17.4711 41.6991 16.2573 41.9812 14.8726 42.5453C13.488 43.1265 12.3597 43.4171 11.4878 43.4171C8.8894 43.4171 6.3166 41.2033 3.76945 36.7757C1.25648 32.3139 0 28.0146 0 23.8776C0 19.9799 0.965867 16.7831 2.8976 14.2873C4.82934 11.8256 7.25683 10.5948 10.1801 10.5948C11.4109 10.5948 12.9238 10.8512 14.7188 11.364C16.4967 11.8769 17.6762 12.1333 18.2575 12.1333C19.0267 12.1333 20.249 11.8427 21.9243 11.2615C23.668 10.6802 25.1467 10.3896 26.3605 10.3896C28.3948 10.3896 30.2154 10.9452 31.8223 12.0564C32.7113 12.6718 33.6002 13.5266 34.4892 14.6206C33.1387 15.766 32.1642 16.7746 31.5659 17.6464C30.4547 19.2534 29.8992 21.0227 29.8992 22.9544C29.8992 25.0742 30.4889 26.9803 31.6685 28.6727C32.848 30.3651 34.1985 31.4421 35.72 31.9037ZM26.0784 1.82503C26.0784 2.86783 25.8305 4.03029 25.3348 5.31241C24.8219 6.59453 24.027 7.77409 22.95 8.85107C22.0269 9.7742 21.1038 10.3896 20.1806 10.6973C19.5481 10.8854 18.6592 11.0307 17.5138 11.1333C17.5651 8.5861 18.2318 6.38939 19.5139 4.54314C20.779 2.71397 22.9158 1.44894 25.9246 0.748047C25.9417 0.799332 25.963 0.893354 25.9887 1.03011C26.0143 1.16687 26.0357 1.2609 26.0528 1.31218C26.0528 1.38056 26.0571 1.46604 26.0656 1.56861C26.0741 1.67118 26.0784 1.75665 26.0784 1.82503Z" fill="#DDDDDD"/>
</svg>
